<mxfile host="Electron" modified="2024-05-09T14:34:24.524Z" agent="Mozilla/5.0 (Windows NT 10.0; Win64; x64) AppleWebKit/537.36 (KHTML, like Gecko) draw.io/24.2.5 Chrome/120.0.6099.109 Electron/28.1.0 Safari/537.36" etag="yQPeCXmKkJ2itnlwwlHr" version="24.2.5" type="device">
  <diagram name="第 1 页" id="oeyztuv9w24zEjx0jf4I">
    <mxGraphModel dx="2074" dy="1205" grid="1" gridSize="10" guides="1" tooltips="1" connect="1" arrows="1" fold="1" page="1" pageScale="1" pageWidth="827" pageHeight="1169" math="0" shadow="0">
      <root>
        <mxCell id="0" />
        <mxCell id="1" parent="0" />
        <mxCell id="XihWxTx6fZRjsztLtVX1-141" value="" style="rounded=0;whiteSpace=wrap;html=1;fillColor=#cce5ff;strokeColor=#36393d;" parent="1" vertex="1">
          <mxGeometry x="65.5" y="400" width="770" height="1440" as="geometry" />
        </mxCell>
        <mxCell id="XihWxTx6fZRjsztLtVX1-144" value="" style="rounded=0;whiteSpace=wrap;html=1;fillColor=#dae8fc;strokeColor=#6c8ebf;" parent="1" vertex="1">
          <mxGeometry x="85.25" y="1490" width="724.75" height="317.5" as="geometry" />
        </mxCell>
        <mxCell id="XihWxTx6fZRjsztLtVX1-143" value="" style="rounded=0;whiteSpace=wrap;html=1;fillColor=#dae8fc;strokeColor=#6c8ebf;" parent="1" vertex="1">
          <mxGeometry x="82.63" y="1120" width="730" height="310" as="geometry" />
        </mxCell>
        <mxCell id="XihWxTx6fZRjsztLtVX1-1" value="Vertex 0" style="ellipse;whiteSpace=wrap;html=1;aspect=fixed;fontSize=15;fillColor=#d5e8d4;strokeColor=#82b366;" parent="1" vertex="1">
          <mxGeometry x="300" y="440" width="70" height="70" as="geometry" />
        </mxCell>
        <mxCell id="XihWxTx6fZRjsztLtVX1-2" value="Vertex 2" style="ellipse;whiteSpace=wrap;html=1;aspect=fixed;fontSize=15;fillColor=#d5e8d4;strokeColor=#82b366;" parent="1" vertex="1">
          <mxGeometry x="440" y="440" width="70" height="70" as="geometry" />
        </mxCell>
        <mxCell id="XihWxTx6fZRjsztLtVX1-3" value="Vertex 1" style="ellipse;whiteSpace=wrap;html=1;aspect=fixed;fontSize=15;fillColor=#d5e8d4;strokeColor=#82b366;" parent="1" vertex="1">
          <mxGeometry x="370" y="530" width="70" height="70" as="geometry" />
        </mxCell>
        <mxCell id="XihWxTx6fZRjsztLtVX1-4" value="Vertex 3" style="ellipse;whiteSpace=wrap;html=1;aspect=fixed;fontSize=15;fillColor=#d5e8d4;strokeColor=#82b366;" parent="1" vertex="1">
          <mxGeometry x="510" y="530" width="70" height="70" as="geometry" />
        </mxCell>
        <mxCell id="XihWxTx6fZRjsztLtVX1-5" value="" style="endArrow=none;html=1;rounded=0;exitX=0.5;exitY=1;exitDx=0;exitDy=0;entryX=0;entryY=0;entryDx=0;entryDy=0;fillColor=#d5e8d4;strokeColor=#82b366;" parent="1" source="XihWxTx6fZRjsztLtVX1-1" target="XihWxTx6fZRjsztLtVX1-3" edge="1">
          <mxGeometry width="50" height="50" relative="1" as="geometry">
            <mxPoint x="460" y="630" as="sourcePoint" />
            <mxPoint x="510" y="580" as="targetPoint" />
          </mxGeometry>
        </mxCell>
        <mxCell id="XihWxTx6fZRjsztLtVX1-6" value="" style="endArrow=none;html=1;rounded=0;exitX=1;exitY=0.5;exitDx=0;exitDy=0;entryX=0;entryY=0.5;entryDx=0;entryDy=0;fillColor=#d5e8d4;strokeColor=#82b366;" parent="1" source="XihWxTx6fZRjsztLtVX1-1" target="XihWxTx6fZRjsztLtVX1-2" edge="1">
          <mxGeometry width="50" height="50" relative="1" as="geometry">
            <mxPoint x="345" y="520" as="sourcePoint" />
            <mxPoint x="390" y="550" as="targetPoint" />
          </mxGeometry>
        </mxCell>
        <mxCell id="XihWxTx6fZRjsztLtVX1-7" value="" style="endArrow=none;html=1;rounded=0;exitX=1;exitY=0.5;exitDx=0;exitDy=0;entryX=0;entryY=0.5;entryDx=0;entryDy=0;fillColor=#d5e8d4;strokeColor=#82b366;" parent="1" source="XihWxTx6fZRjsztLtVX1-3" target="XihWxTx6fZRjsztLtVX1-4" edge="1">
          <mxGeometry width="50" height="50" relative="1" as="geometry">
            <mxPoint x="355" y="530" as="sourcePoint" />
            <mxPoint x="400" y="560" as="targetPoint" />
          </mxGeometry>
        </mxCell>
        <mxCell id="XihWxTx6fZRjsztLtVX1-8" value="" style="endArrow=none;html=1;rounded=0;exitX=1;exitY=1;exitDx=0;exitDy=0;entryX=0.5;entryY=0;entryDx=0;entryDy=0;fillColor=#d5e8d4;strokeColor=#82b366;" parent="1" source="XihWxTx6fZRjsztLtVX1-2" target="XihWxTx6fZRjsztLtVX1-4" edge="1">
          <mxGeometry width="50" height="50" relative="1" as="geometry">
            <mxPoint x="450" y="575" as="sourcePoint" />
            <mxPoint x="520" y="575" as="targetPoint" />
          </mxGeometry>
        </mxCell>
        <mxCell id="XihWxTx6fZRjsztLtVX1-9" value="" style="endArrow=none;html=1;rounded=0;exitX=0.5;exitY=1;exitDx=0;exitDy=0;entryX=0.5;entryY=0;entryDx=0;entryDy=0;fillColor=#d5e8d4;strokeColor=#82b366;" parent="1" source="XihWxTx6fZRjsztLtVX1-2" target="XihWxTx6fZRjsztLtVX1-3" edge="1">
          <mxGeometry width="50" height="50" relative="1" as="geometry">
            <mxPoint x="510" y="510" as="sourcePoint" />
            <mxPoint x="555" y="540" as="targetPoint" />
          </mxGeometry>
        </mxCell>
        <mxCell id="XihWxTx6fZRjsztLtVX1-10" value="Assets" style="childLayout=tableLayout;recursiveResize=0;strokeColor=#98bf21;fillColor=#E6D0DE;shadow=1;fontSize=15;" parent="1" vertex="1">
          <mxGeometry x="305" y="730" width="280" height="230" as="geometry" />
        </mxCell>
        <mxCell id="XihWxTx6fZRjsztLtVX1-11" style="shape=tableRow;horizontal=0;startSize=0;swimlaneHead=0;swimlaneBody=0;top=0;left=0;bottom=0;right=0;dropTarget=0;collapsible=0;recursiveResize=0;expand=0;fontStyle=0;strokeColor=inherit;fillColor=#ffffff;" parent="XihWxTx6fZRjsztLtVX1-10" vertex="1">
          <mxGeometry width="280" height="47" as="geometry" />
        </mxCell>
        <mxCell id="XihWxTx6fZRjsztLtVX1-12" value="float3" style="connectable=0;recursiveResize=0;strokeColor=inherit;fillColor=#A7C942;align=center;fontStyle=1;fontColor=#FFFFFF;html=1;fontSize=15;" parent="XihWxTx6fZRjsztLtVX1-11" vertex="1">
          <mxGeometry width="139" height="47" as="geometry">
            <mxRectangle width="139" height="47" as="alternateBounds" />
          </mxGeometry>
        </mxCell>
        <mxCell id="XihWxTx6fZRjsztLtVX1-13" value="vertex index" style="connectable=0;recursiveResize=0;strokeColor=inherit;fillColor=#A7C942;align=center;fontStyle=1;fontColor=#FFFFFF;html=1;fontSize=15;" parent="XihWxTx6fZRjsztLtVX1-11" vertex="1">
          <mxGeometry x="139" width="141" height="47" as="geometry">
            <mxRectangle width="141" height="47" as="alternateBounds" />
          </mxGeometry>
        </mxCell>
        <mxCell id="XihWxTx6fZRjsztLtVX1-15" value="" style="shape=tableRow;horizontal=0;startSize=0;swimlaneHead=0;swimlaneBody=0;top=0;left=0;bottom=0;right=0;dropTarget=0;collapsible=0;recursiveResize=0;expand=0;fontStyle=0;strokeColor=inherit;fillColor=#ffffff;" parent="XihWxTx6fZRjsztLtVX1-10" vertex="1">
          <mxGeometry y="47" width="280" height="46" as="geometry" />
        </mxCell>
        <mxCell id="XihWxTx6fZRjsztLtVX1-16" value="Hash Pos 0" style="connectable=0;recursiveResize=0;strokeColor=inherit;fillColor=inherit;align=center;whiteSpace=wrap;html=1;fontSize=15;" parent="XihWxTx6fZRjsztLtVX1-15" vertex="1">
          <mxGeometry width="139" height="46" as="geometry">
            <mxRectangle width="139" height="46" as="alternateBounds" />
          </mxGeometry>
        </mxCell>
        <mxCell id="XihWxTx6fZRjsztLtVX1-17" value="0" style="connectable=0;recursiveResize=0;strokeColor=inherit;fillColor=inherit;align=center;whiteSpace=wrap;html=1;" parent="XihWxTx6fZRjsztLtVX1-15" vertex="1">
          <mxGeometry x="139" width="141" height="46" as="geometry">
            <mxRectangle width="141" height="46" as="alternateBounds" />
          </mxGeometry>
        </mxCell>
        <mxCell id="XihWxTx6fZRjsztLtVX1-19" value="" style="shape=tableRow;horizontal=0;startSize=0;swimlaneHead=0;swimlaneBody=0;top=0;left=0;bottom=0;right=0;dropTarget=0;collapsible=0;recursiveResize=0;expand=0;fontStyle=1;strokeColor=inherit;fillColor=#EAF2D3;" parent="XihWxTx6fZRjsztLtVX1-10" vertex="1">
          <mxGeometry y="93" width="280" height="45" as="geometry" />
        </mxCell>
        <mxCell id="XihWxTx6fZRjsztLtVX1-20" value="Hash Pos 1" style="connectable=0;recursiveResize=0;strokeColor=inherit;fillColor=inherit;whiteSpace=wrap;html=1;fontSize=15;" parent="XihWxTx6fZRjsztLtVX1-19" vertex="1">
          <mxGeometry width="139" height="45" as="geometry">
            <mxRectangle width="139" height="45" as="alternateBounds" />
          </mxGeometry>
        </mxCell>
        <mxCell id="XihWxTx6fZRjsztLtVX1-21" value="1" style="connectable=0;recursiveResize=0;strokeColor=inherit;fillColor=inherit;whiteSpace=wrap;html=1;fontSize=15;" parent="XihWxTx6fZRjsztLtVX1-19" vertex="1">
          <mxGeometry x="139" width="141" height="45" as="geometry">
            <mxRectangle width="141" height="45" as="alternateBounds" />
          </mxGeometry>
        </mxCell>
        <mxCell id="XihWxTx6fZRjsztLtVX1-23" value="" style="shape=tableRow;horizontal=0;startSize=0;swimlaneHead=0;swimlaneBody=0;top=0;left=0;bottom=0;right=0;dropTarget=0;collapsible=0;recursiveResize=0;expand=0;fontStyle=0;strokeColor=inherit;fillColor=#ffffff;" parent="XihWxTx6fZRjsztLtVX1-10" vertex="1">
          <mxGeometry y="138" width="280" height="47" as="geometry" />
        </mxCell>
        <mxCell id="XihWxTx6fZRjsztLtVX1-24" value="Hash Pos 2" style="connectable=0;recursiveResize=0;strokeColor=inherit;fillColor=inherit;fontStyle=0;align=center;whiteSpace=wrap;html=1;fontSize=15;" parent="XihWxTx6fZRjsztLtVX1-23" vertex="1">
          <mxGeometry width="139" height="47" as="geometry">
            <mxRectangle width="139" height="47" as="alternateBounds" />
          </mxGeometry>
        </mxCell>
        <mxCell id="XihWxTx6fZRjsztLtVX1-25" value="&lt;font style=&quot;font-size: 15px;&quot;&gt;2&lt;/font&gt;" style="connectable=0;recursiveResize=0;strokeColor=inherit;fillColor=inherit;fontStyle=0;align=center;whiteSpace=wrap;html=1;" parent="XihWxTx6fZRjsztLtVX1-23" vertex="1">
          <mxGeometry x="139" width="141" height="47" as="geometry">
            <mxRectangle width="141" height="47" as="alternateBounds" />
          </mxGeometry>
        </mxCell>
        <mxCell id="XihWxTx6fZRjsztLtVX1-27" value="" style="shape=tableRow;horizontal=0;startSize=0;swimlaneHead=0;swimlaneBody=0;top=0;left=0;bottom=0;right=0;dropTarget=0;collapsible=0;recursiveResize=0;expand=0;fontStyle=1;strokeColor=inherit;fillColor=#EAF2D3;" parent="XihWxTx6fZRjsztLtVX1-10" vertex="1">
          <mxGeometry y="185" width="280" height="45" as="geometry" />
        </mxCell>
        <mxCell id="XihWxTx6fZRjsztLtVX1-28" value="Hash Pos 3" style="connectable=0;recursiveResize=0;strokeColor=inherit;fillColor=inherit;whiteSpace=wrap;html=1;fontSize=15;" parent="XihWxTx6fZRjsztLtVX1-27" vertex="1">
          <mxGeometry width="139" height="45" as="geometry">
            <mxRectangle width="139" height="45" as="alternateBounds" />
          </mxGeometry>
        </mxCell>
        <mxCell id="XihWxTx6fZRjsztLtVX1-29" value="&lt;font style=&quot;font-size: 15px;&quot;&gt;3&lt;/font&gt;" style="connectable=0;recursiveResize=0;strokeColor=inherit;fillColor=inherit;whiteSpace=wrap;html=1;" parent="XihWxTx6fZRjsztLtVX1-27" vertex="1">
          <mxGeometry x="139" width="141" height="45" as="geometry">
            <mxRectangle width="141" height="45" as="alternateBounds" />
          </mxGeometry>
        </mxCell>
        <mxCell id="XihWxTx6fZRjsztLtVX1-31" value="" style="shape=singleArrow;direction=south;whiteSpace=wrap;html=1;fillColor=#fff2cc;strokeColor=#d6b656;" parent="1" vertex="1">
          <mxGeometry x="430" y="590" width="50" height="90" as="geometry" />
        </mxCell>
        <mxCell id="XihWxTx6fZRjsztLtVX1-32" value="Vertex 0" style="ellipse;whiteSpace=wrap;html=1;aspect=fixed;fontSize=15;fillColor=#d5e8d4;strokeColor=#82b366;" parent="1" vertex="1">
          <mxGeometry x="100" y="1165" width="70" height="70" as="geometry" />
        </mxCell>
        <mxCell id="XihWxTx6fZRjsztLtVX1-33" value="Vertex 2" style="ellipse;whiteSpace=wrap;html=1;aspect=fixed;fontSize=15;fillColor=#d5e8d4;strokeColor=#82b366;" parent="1" vertex="1">
          <mxGeometry x="240" y="1165" width="70" height="70" as="geometry" />
        </mxCell>
        <mxCell id="XihWxTx6fZRjsztLtVX1-34" value="Vertex 1" style="ellipse;whiteSpace=wrap;html=1;aspect=fixed;fontSize=15;fillColor=#d5e8d4;strokeColor=#82b366;" parent="1" vertex="1">
          <mxGeometry x="170" y="1255" width="70" height="70" as="geometry" />
        </mxCell>
        <mxCell id="XihWxTx6fZRjsztLtVX1-35" value="" style="endArrow=none;html=1;rounded=0;exitX=0.5;exitY=1;exitDx=0;exitDy=0;entryX=0;entryY=0;entryDx=0;entryDy=0;fillColor=#d5e8d4;strokeColor=#82b366;" parent="1" source="XihWxTx6fZRjsztLtVX1-32" target="XihWxTx6fZRjsztLtVX1-34" edge="1">
          <mxGeometry width="50" height="50" relative="1" as="geometry">
            <mxPoint x="260" y="1355" as="sourcePoint" />
            <mxPoint x="310" y="1305" as="targetPoint" />
          </mxGeometry>
        </mxCell>
        <mxCell id="XihWxTx6fZRjsztLtVX1-36" value="" style="endArrow=none;html=1;rounded=0;exitX=1;exitY=0.5;exitDx=0;exitDy=0;entryX=0;entryY=0.5;entryDx=0;entryDy=0;fillColor=#d5e8d4;strokeColor=#82b366;" parent="1" source="XihWxTx6fZRjsztLtVX1-32" target="XihWxTx6fZRjsztLtVX1-33" edge="1">
          <mxGeometry width="50" height="50" relative="1" as="geometry">
            <mxPoint x="145" y="1245" as="sourcePoint" />
            <mxPoint x="190" y="1275" as="targetPoint" />
          </mxGeometry>
        </mxCell>
        <mxCell id="XihWxTx6fZRjsztLtVX1-37" value="" style="endArrow=none;html=1;rounded=0;exitX=0.5;exitY=1;exitDx=0;exitDy=0;entryX=0.5;entryY=0;entryDx=0;entryDy=0;fillColor=#d5e8d4;strokeColor=#82b366;" parent="1" source="XihWxTx6fZRjsztLtVX1-33" target="XihWxTx6fZRjsztLtVX1-34" edge="1">
          <mxGeometry width="50" height="50" relative="1" as="geometry">
            <mxPoint x="310" y="1235" as="sourcePoint" />
            <mxPoint x="355" y="1265" as="targetPoint" />
          </mxGeometry>
        </mxCell>
        <mxCell id="XihWxTx6fZRjsztLtVX1-38" value="Assets" style="childLayout=tableLayout;recursiveResize=0;strokeColor=#98bf21;fillColor=#A7C942;shadow=1;fontSize=15;" parent="1" vertex="1">
          <mxGeometry x="374.5" y="1150" width="141" height="230" as="geometry" />
        </mxCell>
        <mxCell id="XihWxTx6fZRjsztLtVX1-39" style="shape=tableRow;horizontal=0;startSize=0;swimlaneHead=0;swimlaneBody=0;top=0;left=0;bottom=0;right=0;dropTarget=0;collapsible=0;recursiveResize=0;expand=0;fontStyle=0;strokeColor=inherit;fillColor=#ffffff;" parent="XihWxTx6fZRjsztLtVX1-38" vertex="1">
          <mxGeometry width="141" height="47" as="geometry" />
        </mxCell>
        <mxCell id="XihWxTx6fZRjsztLtVX1-41" value="vertex index" style="connectable=0;recursiveResize=0;strokeColor=inherit;fillColor=#A7C942;align=center;fontStyle=1;fontColor=#FFFFFF;html=1;fontSize=15;" parent="XihWxTx6fZRjsztLtVX1-39" vertex="1">
          <mxGeometry width="141" height="47" as="geometry">
            <mxRectangle width="141" height="47" as="alternateBounds" />
          </mxGeometry>
        </mxCell>
        <mxCell id="XihWxTx6fZRjsztLtVX1-42" value="" style="shape=tableRow;horizontal=0;startSize=0;swimlaneHead=0;swimlaneBody=0;top=0;left=0;bottom=0;right=0;dropTarget=0;collapsible=0;recursiveResize=0;expand=0;fontStyle=0;strokeColor=inherit;fillColor=#ffffff;" parent="XihWxTx6fZRjsztLtVX1-38" vertex="1">
          <mxGeometry y="47" width="141" height="46" as="geometry" />
        </mxCell>
        <mxCell id="XihWxTx6fZRjsztLtVX1-44" value="0" style="connectable=0;recursiveResize=0;strokeColor=inherit;fillColor=inherit;align=center;whiteSpace=wrap;html=1;" parent="XihWxTx6fZRjsztLtVX1-42" vertex="1">
          <mxGeometry width="141" height="46" as="geometry">
            <mxRectangle width="141" height="46" as="alternateBounds" />
          </mxGeometry>
        </mxCell>
        <mxCell id="XihWxTx6fZRjsztLtVX1-45" value="" style="shape=tableRow;horizontal=0;startSize=0;swimlaneHead=0;swimlaneBody=0;top=0;left=0;bottom=0;right=0;dropTarget=0;collapsible=0;recursiveResize=0;expand=0;fontStyle=1;strokeColor=inherit;fillColor=#EAF2D3;" parent="XihWxTx6fZRjsztLtVX1-38" vertex="1">
          <mxGeometry y="93" width="141" height="45" as="geometry" />
        </mxCell>
        <mxCell id="XihWxTx6fZRjsztLtVX1-47" value="1" style="connectable=0;recursiveResize=0;strokeColor=inherit;fillColor=inherit;whiteSpace=wrap;html=1;fontSize=15;" parent="XihWxTx6fZRjsztLtVX1-45" vertex="1">
          <mxGeometry width="141" height="45" as="geometry">
            <mxRectangle width="141" height="45" as="alternateBounds" />
          </mxGeometry>
        </mxCell>
        <mxCell id="XihWxTx6fZRjsztLtVX1-48" value="" style="shape=tableRow;horizontal=0;startSize=0;swimlaneHead=0;swimlaneBody=0;top=0;left=0;bottom=0;right=0;dropTarget=0;collapsible=0;recursiveResize=0;expand=0;fontStyle=0;strokeColor=inherit;fillColor=#ffffff;" parent="XihWxTx6fZRjsztLtVX1-38" vertex="1">
          <mxGeometry y="138" width="141" height="47" as="geometry" />
        </mxCell>
        <mxCell id="XihWxTx6fZRjsztLtVX1-50" value="&lt;font style=&quot;font-size: 15px;&quot;&gt;2&lt;/font&gt;" style="connectable=0;recursiveResize=0;strokeColor=inherit;fillColor=inherit;fontStyle=0;align=center;whiteSpace=wrap;html=1;" parent="XihWxTx6fZRjsztLtVX1-48" vertex="1">
          <mxGeometry width="141" height="47" as="geometry">
            <mxRectangle width="141" height="47" as="alternateBounds" />
          </mxGeometry>
        </mxCell>
        <mxCell id="XihWxTx6fZRjsztLtVX1-51" value="" style="shape=tableRow;horizontal=0;startSize=0;swimlaneHead=0;swimlaneBody=0;top=0;left=0;bottom=0;right=0;dropTarget=0;collapsible=0;recursiveResize=0;expand=0;fontStyle=1;strokeColor=inherit;fillColor=#EAF2D3;" parent="XihWxTx6fZRjsztLtVX1-38" vertex="1">
          <mxGeometry y="185" width="141" height="45" as="geometry" />
        </mxCell>
        <mxCell id="XihWxTx6fZRjsztLtVX1-53" value="&lt;font style=&quot;font-size: 15px;&quot;&gt;3&lt;/font&gt;" style="connectable=0;recursiveResize=0;strokeColor=inherit;fillColor=inherit;whiteSpace=wrap;html=1;" parent="XihWxTx6fZRjsztLtVX1-51" vertex="1">
          <mxGeometry width="141" height="45" as="geometry">
            <mxRectangle width="141" height="45" as="alternateBounds" />
          </mxGeometry>
        </mxCell>
        <mxCell id="XihWxTx6fZRjsztLtVX1-54" value="" style="shape=table;startSize=0;container=1;collapsible=0;childLayout=tableLayout;fontSize=16;" parent="1" vertex="1">
          <mxGeometry x="580" y="1180" width="180" height="40" as="geometry" />
        </mxCell>
        <mxCell id="XihWxTx6fZRjsztLtVX1-55" value="" style="shape=tableRow;horizontal=0;startSize=0;swimlaneHead=0;swimlaneBody=0;strokeColor=inherit;top=0;left=0;bottom=0;right=0;collapsible=0;dropTarget=0;fillColor=none;points=[[0,0.5],[1,0.5]];portConstraint=eastwest;fontSize=16;" parent="XihWxTx6fZRjsztLtVX1-54" vertex="1">
          <mxGeometry width="180" height="40" as="geometry" />
        </mxCell>
        <mxCell id="XihWxTx6fZRjsztLtVX1-56" value="1" style="shape=partialRectangle;html=1;whiteSpace=wrap;connectable=0;strokeColor=#82b366;overflow=hidden;fillColor=#d5e8d4;top=0;left=0;bottom=0;right=0;pointerEvents=1;fontSize=16;" parent="XihWxTx6fZRjsztLtVX1-55" vertex="1">
          <mxGeometry width="60" height="40" as="geometry">
            <mxRectangle width="60" height="40" as="alternateBounds" />
          </mxGeometry>
        </mxCell>
        <mxCell id="XihWxTx6fZRjsztLtVX1-57" value="2" style="shape=partialRectangle;html=1;whiteSpace=wrap;connectable=0;strokeColor=#82b366;overflow=hidden;fillColor=#d5e8d4;top=0;left=0;bottom=0;right=0;pointerEvents=1;fontSize=16;" parent="XihWxTx6fZRjsztLtVX1-55" vertex="1">
          <mxGeometry x="60" width="60" height="40" as="geometry">
            <mxRectangle width="60" height="40" as="alternateBounds" />
          </mxGeometry>
        </mxCell>
        <mxCell id="XihWxTx6fZRjsztLtVX1-58" value="" style="shape=partialRectangle;html=1;whiteSpace=wrap;connectable=0;strokeColor=#9673a6;overflow=hidden;fillColor=#e1d5e7;top=0;left=0;bottom=0;right=0;pointerEvents=1;fontSize=16;" parent="XihWxTx6fZRjsztLtVX1-55" vertex="1">
          <mxGeometry x="120" width="60" height="40" as="geometry">
            <mxRectangle width="60" height="40" as="alternateBounds" />
          </mxGeometry>
        </mxCell>
        <mxCell id="XihWxTx6fZRjsztLtVX1-67" value="&lt;span style=&quot;font-weight: normal;&quot;&gt;ajacent vertex&lt;/span&gt;" style="text;strokeColor=none;fillColor=none;html=1;fontSize=24;fontStyle=1;verticalAlign=middle;align=center;" parent="1" vertex="1">
          <mxGeometry x="580" y="1140" width="180" height="40" as="geometry" />
        </mxCell>
        <mxCell id="XihWxTx6fZRjsztLtVX1-70" value="" style="shape=table;startSize=0;container=1;collapsible=0;childLayout=tableLayout;fontSize=16;" parent="1" vertex="1">
          <mxGeometry x="580" y="1235" width="180" height="40" as="geometry" />
        </mxCell>
        <mxCell id="XihWxTx6fZRjsztLtVX1-71" value="" style="shape=tableRow;horizontal=0;startSize=0;swimlaneHead=0;swimlaneBody=0;strokeColor=inherit;top=0;left=0;bottom=0;right=0;collapsible=0;dropTarget=0;fillColor=none;points=[[0,0.5],[1,0.5]];portConstraint=eastwest;fontSize=16;" parent="XihWxTx6fZRjsztLtVX1-70" vertex="1">
          <mxGeometry width="180" height="40" as="geometry" />
        </mxCell>
        <mxCell id="XihWxTx6fZRjsztLtVX1-72" value="0" style="shape=partialRectangle;html=1;whiteSpace=wrap;connectable=0;strokeColor=#82b366;overflow=hidden;fillColor=#d5e8d4;top=0;left=0;bottom=0;right=0;pointerEvents=1;fontSize=16;" parent="XihWxTx6fZRjsztLtVX1-71" vertex="1">
          <mxGeometry width="60" height="40" as="geometry">
            <mxRectangle width="60" height="40" as="alternateBounds" />
          </mxGeometry>
        </mxCell>
        <mxCell id="XihWxTx6fZRjsztLtVX1-73" value="2" style="shape=partialRectangle;html=1;whiteSpace=wrap;connectable=0;strokeColor=#82b366;overflow=hidden;fillColor=#d5e8d4;top=0;left=0;bottom=0;right=0;pointerEvents=1;fontSize=16;" parent="XihWxTx6fZRjsztLtVX1-71" vertex="1">
          <mxGeometry x="60" width="60" height="40" as="geometry">
            <mxRectangle width="60" height="40" as="alternateBounds" />
          </mxGeometry>
        </mxCell>
        <mxCell id="XihWxTx6fZRjsztLtVX1-74" value="" style="shape=partialRectangle;html=1;whiteSpace=wrap;connectable=0;strokeColor=#9673a6;overflow=hidden;fillColor=#e1d5e7;top=0;left=0;bottom=0;right=0;pointerEvents=1;fontSize=16;" parent="XihWxTx6fZRjsztLtVX1-71" vertex="1">
          <mxGeometry x="120" width="60" height="40" as="geometry">
            <mxRectangle width="60" height="40" as="alternateBounds" />
          </mxGeometry>
        </mxCell>
        <mxCell id="XihWxTx6fZRjsztLtVX1-75" value="" style="shape=table;startSize=0;container=1;collapsible=0;childLayout=tableLayout;fontSize=16;" parent="1" vertex="1">
          <mxGeometry x="580" y="1285" width="180" height="40" as="geometry" />
        </mxCell>
        <mxCell id="XihWxTx6fZRjsztLtVX1-76" value="" style="shape=tableRow;horizontal=0;startSize=0;swimlaneHead=0;swimlaneBody=0;strokeColor=inherit;top=0;left=0;bottom=0;right=0;collapsible=0;dropTarget=0;fillColor=none;points=[[0,0.5],[1,0.5]];portConstraint=eastwest;fontSize=16;" parent="XihWxTx6fZRjsztLtVX1-75" vertex="1">
          <mxGeometry width="180" height="40" as="geometry" />
        </mxCell>
        <mxCell id="XihWxTx6fZRjsztLtVX1-77" value="0" style="shape=partialRectangle;html=1;whiteSpace=wrap;connectable=0;strokeColor=#82b366;overflow=hidden;fillColor=#d5e8d4;top=0;left=0;bottom=0;right=0;pointerEvents=1;fontSize=16;" parent="XihWxTx6fZRjsztLtVX1-76" vertex="1">
          <mxGeometry width="60" height="40" as="geometry">
            <mxRectangle width="60" height="40" as="alternateBounds" />
          </mxGeometry>
        </mxCell>
        <mxCell id="XihWxTx6fZRjsztLtVX1-78" value="1" style="shape=partialRectangle;html=1;whiteSpace=wrap;connectable=0;strokeColor=#82b366;overflow=hidden;fillColor=#d5e8d4;top=0;left=0;bottom=0;right=0;pointerEvents=1;fontSize=16;" parent="XihWxTx6fZRjsztLtVX1-76" vertex="1">
          <mxGeometry x="60" width="60" height="40" as="geometry">
            <mxRectangle width="60" height="40" as="alternateBounds" />
          </mxGeometry>
        </mxCell>
        <mxCell id="XihWxTx6fZRjsztLtVX1-79" value="" style="shape=partialRectangle;html=1;whiteSpace=wrap;connectable=0;strokeColor=#9673a6;overflow=hidden;fillColor=#e1d5e7;top=0;left=0;bottom=0;right=0;pointerEvents=1;fontSize=16;" parent="XihWxTx6fZRjsztLtVX1-76" vertex="1">
          <mxGeometry x="120" width="60" height="40" as="geometry">
            <mxRectangle width="60" height="40" as="alternateBounds" />
          </mxGeometry>
        </mxCell>
        <mxCell id="XihWxTx6fZRjsztLtVX1-80" value="" style="shape=table;startSize=0;container=1;collapsible=0;childLayout=tableLayout;fontSize=16;fillColor=#e1d5e7;strokeColor=#9673a6;" parent="1" vertex="1">
          <mxGeometry x="580" y="1340" width="180" height="40" as="geometry" />
        </mxCell>
        <mxCell id="XihWxTx6fZRjsztLtVX1-81" value="" style="shape=tableRow;horizontal=0;startSize=0;swimlaneHead=0;swimlaneBody=0;strokeColor=inherit;top=0;left=0;bottom=0;right=0;collapsible=0;dropTarget=0;fillColor=none;points=[[0,0.5],[1,0.5]];portConstraint=eastwest;fontSize=16;" parent="XihWxTx6fZRjsztLtVX1-80" vertex="1">
          <mxGeometry width="180" height="40" as="geometry" />
        </mxCell>
        <mxCell id="XihWxTx6fZRjsztLtVX1-82" value="" style="shape=partialRectangle;html=1;whiteSpace=wrap;connectable=0;strokeColor=inherit;overflow=hidden;fillColor=none;top=0;left=0;bottom=0;right=0;pointerEvents=1;fontSize=16;" parent="XihWxTx6fZRjsztLtVX1-81" vertex="1">
          <mxGeometry width="60" height="40" as="geometry">
            <mxRectangle width="60" height="40" as="alternateBounds" />
          </mxGeometry>
        </mxCell>
        <mxCell id="XihWxTx6fZRjsztLtVX1-83" value="" style="shape=partialRectangle;html=1;whiteSpace=wrap;connectable=0;strokeColor=inherit;overflow=hidden;fillColor=none;top=0;left=0;bottom=0;right=0;pointerEvents=1;fontSize=16;" parent="XihWxTx6fZRjsztLtVX1-81" vertex="1">
          <mxGeometry x="60" width="60" height="40" as="geometry">
            <mxRectangle width="60" height="40" as="alternateBounds" />
          </mxGeometry>
        </mxCell>
        <mxCell id="XihWxTx6fZRjsztLtVX1-84" value="" style="shape=partialRectangle;html=1;whiteSpace=wrap;connectable=0;strokeColor=inherit;overflow=hidden;fillColor=none;top=0;left=0;bottom=0;right=0;pointerEvents=1;fontSize=16;" parent="XihWxTx6fZRjsztLtVX1-81" vertex="1">
          <mxGeometry x="120" width="60" height="40" as="geometry">
            <mxRectangle width="60" height="40" as="alternateBounds" />
          </mxGeometry>
        </mxCell>
        <mxCell id="XihWxTx6fZRjsztLtVX1-91" value="Assets" style="childLayout=tableLayout;recursiveResize=0;strokeColor=#98bf21;fillColor=#A7C942;shadow=1;fontSize=15;" parent="1" vertex="1">
          <mxGeometry x="380" y="1530" width="141" height="230" as="geometry" />
        </mxCell>
        <mxCell id="XihWxTx6fZRjsztLtVX1-92" style="shape=tableRow;horizontal=0;startSize=0;swimlaneHead=0;swimlaneBody=0;top=0;left=0;bottom=0;right=0;dropTarget=0;collapsible=0;recursiveResize=0;expand=0;fontStyle=0;strokeColor=inherit;fillColor=#ffffff;" parent="XihWxTx6fZRjsztLtVX1-91" vertex="1">
          <mxGeometry width="141" height="47" as="geometry" />
        </mxCell>
        <mxCell id="XihWxTx6fZRjsztLtVX1-93" value="vertex index" style="connectable=0;recursiveResize=0;strokeColor=inherit;fillColor=#A7C942;align=center;fontStyle=1;fontColor=#FFFFFF;html=1;fontSize=15;" parent="XihWxTx6fZRjsztLtVX1-92" vertex="1">
          <mxGeometry width="141" height="47" as="geometry">
            <mxRectangle width="141" height="47" as="alternateBounds" />
          </mxGeometry>
        </mxCell>
        <mxCell id="XihWxTx6fZRjsztLtVX1-94" value="" style="shape=tableRow;horizontal=0;startSize=0;swimlaneHead=0;swimlaneBody=0;top=0;left=0;bottom=0;right=0;dropTarget=0;collapsible=0;recursiveResize=0;expand=0;fontStyle=0;strokeColor=inherit;fillColor=#ffffff;" parent="XihWxTx6fZRjsztLtVX1-91" vertex="1">
          <mxGeometry y="47" width="141" height="46" as="geometry" />
        </mxCell>
        <mxCell id="XihWxTx6fZRjsztLtVX1-95" value="0" style="connectable=0;recursiveResize=0;strokeColor=inherit;fillColor=inherit;align=center;whiteSpace=wrap;html=1;" parent="XihWxTx6fZRjsztLtVX1-94" vertex="1">
          <mxGeometry width="141" height="46" as="geometry">
            <mxRectangle width="141" height="46" as="alternateBounds" />
          </mxGeometry>
        </mxCell>
        <mxCell id="XihWxTx6fZRjsztLtVX1-96" value="" style="shape=tableRow;horizontal=0;startSize=0;swimlaneHead=0;swimlaneBody=0;top=0;left=0;bottom=0;right=0;dropTarget=0;collapsible=0;recursiveResize=0;expand=0;fontStyle=1;strokeColor=inherit;fillColor=#EAF2D3;" parent="XihWxTx6fZRjsztLtVX1-91" vertex="1">
          <mxGeometry y="93" width="141" height="45" as="geometry" />
        </mxCell>
        <mxCell id="XihWxTx6fZRjsztLtVX1-97" value="1" style="connectable=0;recursiveResize=0;strokeColor=inherit;fillColor=inherit;whiteSpace=wrap;html=1;fontSize=15;" parent="XihWxTx6fZRjsztLtVX1-96" vertex="1">
          <mxGeometry width="141" height="45" as="geometry">
            <mxRectangle width="141" height="45" as="alternateBounds" />
          </mxGeometry>
        </mxCell>
        <mxCell id="XihWxTx6fZRjsztLtVX1-98" value="" style="shape=tableRow;horizontal=0;startSize=0;swimlaneHead=0;swimlaneBody=0;top=0;left=0;bottom=0;right=0;dropTarget=0;collapsible=0;recursiveResize=0;expand=0;fontStyle=0;strokeColor=inherit;fillColor=#ffffff;" parent="XihWxTx6fZRjsztLtVX1-91" vertex="1">
          <mxGeometry y="138" width="141" height="47" as="geometry" />
        </mxCell>
        <mxCell id="XihWxTx6fZRjsztLtVX1-99" value="&lt;font style=&quot;font-size: 15px;&quot;&gt;2&lt;/font&gt;" style="connectable=0;recursiveResize=0;strokeColor=inherit;fillColor=inherit;fontStyle=0;align=center;whiteSpace=wrap;html=1;" parent="XihWxTx6fZRjsztLtVX1-98" vertex="1">
          <mxGeometry width="141" height="47" as="geometry">
            <mxRectangle width="141" height="47" as="alternateBounds" />
          </mxGeometry>
        </mxCell>
        <mxCell id="XihWxTx6fZRjsztLtVX1-100" value="" style="shape=tableRow;horizontal=0;startSize=0;swimlaneHead=0;swimlaneBody=0;top=0;left=0;bottom=0;right=0;dropTarget=0;collapsible=0;recursiveResize=0;expand=0;fontStyle=1;strokeColor=inherit;fillColor=#EAF2D3;" parent="XihWxTx6fZRjsztLtVX1-91" vertex="1">
          <mxGeometry y="185" width="141" height="45" as="geometry" />
        </mxCell>
        <mxCell id="XihWxTx6fZRjsztLtVX1-101" value="&lt;font style=&quot;font-size: 15px;&quot;&gt;3&lt;/font&gt;" style="connectable=0;recursiveResize=0;strokeColor=inherit;fillColor=inherit;whiteSpace=wrap;html=1;" parent="XihWxTx6fZRjsztLtVX1-100" vertex="1">
          <mxGeometry width="141" height="45" as="geometry">
            <mxRectangle width="141" height="45" as="alternateBounds" />
          </mxGeometry>
        </mxCell>
        <mxCell id="XihWxTx6fZRjsztLtVX1-102" value="" style="shape=table;startSize=0;container=1;collapsible=0;childLayout=tableLayout;fontSize=16;" parent="1" vertex="1">
          <mxGeometry x="600.5" y="1550" width="180" height="40" as="geometry" />
        </mxCell>
        <mxCell id="XihWxTx6fZRjsztLtVX1-103" value="" style="shape=tableRow;horizontal=0;startSize=0;swimlaneHead=0;swimlaneBody=0;strokeColor=inherit;top=0;left=0;bottom=0;right=0;collapsible=0;dropTarget=0;fillColor=none;points=[[0,0.5],[1,0.5]];portConstraint=eastwest;fontSize=16;" parent="XihWxTx6fZRjsztLtVX1-102" vertex="1">
          <mxGeometry width="180" height="40" as="geometry" />
        </mxCell>
        <mxCell id="XihWxTx6fZRjsztLtVX1-104" value="1" style="shape=partialRectangle;html=1;whiteSpace=wrap;connectable=0;strokeColor=#82b366;overflow=hidden;fillColor=#d5e8d4;top=0;left=0;bottom=0;right=0;pointerEvents=1;fontSize=16;" parent="XihWxTx6fZRjsztLtVX1-103" vertex="1">
          <mxGeometry width="60" height="40" as="geometry">
            <mxRectangle width="60" height="40" as="alternateBounds" />
          </mxGeometry>
        </mxCell>
        <mxCell id="XihWxTx6fZRjsztLtVX1-105" value="2" style="shape=partialRectangle;html=1;whiteSpace=wrap;connectable=0;strokeColor=#82b366;overflow=hidden;fillColor=#d5e8d4;top=0;left=0;bottom=0;right=0;pointerEvents=1;fontSize=16;" parent="XihWxTx6fZRjsztLtVX1-103" vertex="1">
          <mxGeometry x="60" width="60" height="40" as="geometry">
            <mxRectangle width="60" height="40" as="alternateBounds" />
          </mxGeometry>
        </mxCell>
        <mxCell id="XihWxTx6fZRjsztLtVX1-106" value="" style="shape=partialRectangle;html=1;whiteSpace=wrap;connectable=0;strokeColor=#9673a6;overflow=hidden;fillColor=#e1d5e7;top=0;left=0;bottom=0;right=0;pointerEvents=1;fontSize=16;" parent="XihWxTx6fZRjsztLtVX1-103" vertex="1">
          <mxGeometry x="120" width="60" height="40" as="geometry">
            <mxRectangle width="60" height="40" as="alternateBounds" />
          </mxGeometry>
        </mxCell>
        <mxCell id="XihWxTx6fZRjsztLtVX1-107" value="&lt;span style=&quot;font-weight: normal;&quot;&gt;ajacent vertex&lt;/span&gt;" style="text;strokeColor=none;fillColor=none;html=1;fontSize=24;fontStyle=1;verticalAlign=middle;align=center;" parent="1" vertex="1">
          <mxGeometry x="600.5" y="1510" width="180" height="40" as="geometry" />
        </mxCell>
        <mxCell id="XihWxTx6fZRjsztLtVX1-108" value="" style="shape=table;startSize=0;container=1;collapsible=0;childLayout=tableLayout;fontSize=16;" parent="1" vertex="1">
          <mxGeometry x="600.5" y="1605" width="180" height="40" as="geometry" />
        </mxCell>
        <mxCell id="XihWxTx6fZRjsztLtVX1-109" value="" style="shape=tableRow;horizontal=0;startSize=0;swimlaneHead=0;swimlaneBody=0;strokeColor=inherit;top=0;left=0;bottom=0;right=0;collapsible=0;dropTarget=0;fillColor=none;points=[[0,0.5],[1,0.5]];portConstraint=eastwest;fontSize=16;" parent="XihWxTx6fZRjsztLtVX1-108" vertex="1">
          <mxGeometry width="180" height="40" as="geometry" />
        </mxCell>
        <mxCell id="XihWxTx6fZRjsztLtVX1-110" value="0" style="shape=partialRectangle;html=1;whiteSpace=wrap;connectable=0;strokeColor=#82b366;overflow=hidden;fillColor=#d5e8d4;top=0;left=0;bottom=0;right=0;pointerEvents=1;fontSize=16;" parent="XihWxTx6fZRjsztLtVX1-109" vertex="1">
          <mxGeometry width="60" height="40" as="geometry">
            <mxRectangle width="60" height="40" as="alternateBounds" />
          </mxGeometry>
        </mxCell>
        <mxCell id="XihWxTx6fZRjsztLtVX1-111" value="2" style="shape=partialRectangle;html=1;whiteSpace=wrap;connectable=0;strokeColor=#82b366;overflow=hidden;fillColor=#d5e8d4;top=0;left=0;bottom=0;right=0;pointerEvents=1;fontSize=16;" parent="XihWxTx6fZRjsztLtVX1-109" vertex="1">
          <mxGeometry x="60" width="60" height="40" as="geometry">
            <mxRectangle width="60" height="40" as="alternateBounds" />
          </mxGeometry>
        </mxCell>
        <mxCell id="XihWxTx6fZRjsztLtVX1-112" value="3" style="shape=partialRectangle;html=1;whiteSpace=wrap;connectable=0;strokeColor=#b85450;overflow=hidden;fillColor=#f8cecc;top=0;left=0;bottom=0;right=0;pointerEvents=1;fontSize=16;" parent="XihWxTx6fZRjsztLtVX1-109" vertex="1">
          <mxGeometry x="120" width="60" height="40" as="geometry">
            <mxRectangle width="60" height="40" as="alternateBounds" />
          </mxGeometry>
        </mxCell>
        <mxCell id="XihWxTx6fZRjsztLtVX1-113" value="" style="shape=table;startSize=0;container=1;collapsible=0;childLayout=tableLayout;fontSize=16;" parent="1" vertex="1">
          <mxGeometry x="600.5" y="1655" width="180" height="40" as="geometry" />
        </mxCell>
        <mxCell id="XihWxTx6fZRjsztLtVX1-114" value="" style="shape=tableRow;horizontal=0;startSize=0;swimlaneHead=0;swimlaneBody=0;strokeColor=inherit;top=0;left=0;bottom=0;right=0;collapsible=0;dropTarget=0;fillColor=none;points=[[0,0.5],[1,0.5]];portConstraint=eastwest;fontSize=16;" parent="XihWxTx6fZRjsztLtVX1-113" vertex="1">
          <mxGeometry width="180" height="40" as="geometry" />
        </mxCell>
        <mxCell id="XihWxTx6fZRjsztLtVX1-115" value="0" style="shape=partialRectangle;html=1;whiteSpace=wrap;connectable=0;strokeColor=#82b366;overflow=hidden;fillColor=#d5e8d4;top=0;left=0;bottom=0;right=0;pointerEvents=1;fontSize=16;" parent="XihWxTx6fZRjsztLtVX1-114" vertex="1">
          <mxGeometry width="60" height="40" as="geometry">
            <mxRectangle width="60" height="40" as="alternateBounds" />
          </mxGeometry>
        </mxCell>
        <mxCell id="XihWxTx6fZRjsztLtVX1-116" value="1" style="shape=partialRectangle;html=1;whiteSpace=wrap;connectable=0;strokeColor=#82b366;overflow=hidden;fillColor=#d5e8d4;top=0;left=0;bottom=0;right=0;pointerEvents=1;fontSize=16;" parent="XihWxTx6fZRjsztLtVX1-114" vertex="1">
          <mxGeometry x="60" width="60" height="40" as="geometry">
            <mxRectangle width="60" height="40" as="alternateBounds" />
          </mxGeometry>
        </mxCell>
        <mxCell id="XihWxTx6fZRjsztLtVX1-117" value="3" style="shape=partialRectangle;html=1;whiteSpace=wrap;connectable=0;strokeColor=#b85450;overflow=hidden;fillColor=#f8cecc;top=0;left=0;bottom=0;right=0;pointerEvents=1;fontSize=16;" parent="XihWxTx6fZRjsztLtVX1-114" vertex="1">
          <mxGeometry x="120" width="60" height="40" as="geometry">
            <mxRectangle width="60" height="40" as="alternateBounds" />
          </mxGeometry>
        </mxCell>
        <mxCell id="XihWxTx6fZRjsztLtVX1-118" value="" style="shape=table;startSize=0;container=1;collapsible=0;childLayout=tableLayout;fontSize=16;" parent="1" vertex="1">
          <mxGeometry x="600.5" y="1710" width="180" height="40" as="geometry" />
        </mxCell>
        <mxCell id="XihWxTx6fZRjsztLtVX1-119" value="" style="shape=tableRow;horizontal=0;startSize=0;swimlaneHead=0;swimlaneBody=0;strokeColor=inherit;top=0;left=0;bottom=0;right=0;collapsible=0;dropTarget=0;fillColor=none;points=[[0,0.5],[1,0.5]];portConstraint=eastwest;fontSize=16;" parent="XihWxTx6fZRjsztLtVX1-118" vertex="1">
          <mxGeometry width="180" height="40" as="geometry" />
        </mxCell>
        <mxCell id="XihWxTx6fZRjsztLtVX1-120" value="1" style="shape=partialRectangle;html=1;whiteSpace=wrap;connectable=0;strokeColor=#b85450;overflow=hidden;fillColor=#f8cecc;top=0;left=0;bottom=0;right=0;pointerEvents=1;fontSize=16;" parent="XihWxTx6fZRjsztLtVX1-119" vertex="1">
          <mxGeometry width="60" height="40" as="geometry">
            <mxRectangle width="60" height="40" as="alternateBounds" />
          </mxGeometry>
        </mxCell>
        <mxCell id="XihWxTx6fZRjsztLtVX1-121" value="2" style="shape=partialRectangle;html=1;whiteSpace=wrap;connectable=0;strokeColor=#b85450;overflow=hidden;fillColor=#f8cecc;top=0;left=0;bottom=0;right=0;pointerEvents=1;fontSize=16;" parent="XihWxTx6fZRjsztLtVX1-119" vertex="1">
          <mxGeometry x="60" width="60" height="40" as="geometry">
            <mxRectangle width="60" height="40" as="alternateBounds" />
          </mxGeometry>
        </mxCell>
        <mxCell id="XihWxTx6fZRjsztLtVX1-122" value="" style="shape=partialRectangle;html=1;whiteSpace=wrap;connectable=0;strokeColor=#9673a6;overflow=hidden;fillColor=#e1d5e7;top=0;left=0;bottom=0;right=0;pointerEvents=1;fontSize=16;" parent="XihWxTx6fZRjsztLtVX1-119" vertex="1">
          <mxGeometry x="120" width="60" height="40" as="geometry">
            <mxRectangle width="60" height="40" as="alternateBounds" />
          </mxGeometry>
        </mxCell>
        <mxCell id="XihWxTx6fZRjsztLtVX1-133" value="Vertex 2" style="ellipse;whiteSpace=wrap;html=1;aspect=fixed;fontSize=15;fillColor=#d5e8d4;strokeColor=#82b366;" parent="1" vertex="1">
          <mxGeometry x="190" y="1570" width="70" height="70" as="geometry" />
        </mxCell>
        <mxCell id="XihWxTx6fZRjsztLtVX1-134" value="Vertex 1" style="ellipse;whiteSpace=wrap;html=1;aspect=fixed;fontSize=15;fillColor=#d5e8d4;strokeColor=#82b366;" parent="1" vertex="1">
          <mxGeometry x="120" y="1660" width="70" height="70" as="geometry" />
        </mxCell>
        <mxCell id="XihWxTx6fZRjsztLtVX1-135" value="Vertex 3" style="ellipse;whiteSpace=wrap;html=1;aspect=fixed;fontSize=15;fillColor=#d5e8d4;strokeColor=#82b366;" parent="1" vertex="1">
          <mxGeometry x="260" y="1660" width="70" height="70" as="geometry" />
        </mxCell>
        <mxCell id="XihWxTx6fZRjsztLtVX1-138" value="" style="endArrow=none;html=1;rounded=0;exitX=1;exitY=0.5;exitDx=0;exitDy=0;entryX=0;entryY=0.5;entryDx=0;entryDy=0;fillColor=#d5e8d4;strokeColor=#82b366;" parent="1" source="XihWxTx6fZRjsztLtVX1-134" target="XihWxTx6fZRjsztLtVX1-135" edge="1">
          <mxGeometry width="50" height="50" relative="1" as="geometry">
            <mxPoint x="105" y="1660" as="sourcePoint" />
            <mxPoint x="150" y="1690" as="targetPoint" />
          </mxGeometry>
        </mxCell>
        <mxCell id="XihWxTx6fZRjsztLtVX1-139" value="" style="endArrow=none;html=1;rounded=0;exitX=1;exitY=1;exitDx=0;exitDy=0;entryX=0.5;entryY=0;entryDx=0;entryDy=0;fillColor=#d5e8d4;strokeColor=#82b366;" parent="1" source="XihWxTx6fZRjsztLtVX1-133" target="XihWxTx6fZRjsztLtVX1-135" edge="1">
          <mxGeometry width="50" height="50" relative="1" as="geometry">
            <mxPoint x="200" y="1705" as="sourcePoint" />
            <mxPoint x="270" y="1705" as="targetPoint" />
          </mxGeometry>
        </mxCell>
        <mxCell id="XihWxTx6fZRjsztLtVX1-140" value="" style="endArrow=none;html=1;rounded=0;exitX=0.5;exitY=1;exitDx=0;exitDy=0;entryX=0.5;entryY=0;entryDx=0;entryDy=0;fillColor=#d5e8d4;strokeColor=#82b366;" parent="1" source="XihWxTx6fZRjsztLtVX1-133" target="XihWxTx6fZRjsztLtVX1-134" edge="1">
          <mxGeometry width="50" height="50" relative="1" as="geometry">
            <mxPoint x="260" y="1640" as="sourcePoint" />
            <mxPoint x="305" y="1670" as="targetPoint" />
          </mxGeometry>
        </mxCell>
        <mxCell id="XihWxTx6fZRjsztLtVX1-142" value="Position Hash Table" style="text;strokeColor=none;fillColor=none;html=1;fontSize=20;fontStyle=0;verticalAlign=middle;align=center;" parent="1" vertex="1">
          <mxGeometry x="250" y="690" width="379.5" height="40" as="geometry" />
        </mxCell>
        <mxCell id="XihWxTx6fZRjsztLtVX1-145" value="" style="shape=singleArrow;direction=south;whiteSpace=wrap;html=1;fillColor=#fff2cc;strokeColor=#d6b656;" parent="1" vertex="1">
          <mxGeometry x="425.5" y="990" width="50" height="90" as="geometry" />
        </mxCell>
      </root>
    </mxGraphModel>
  </diagram>
</mxfile>
